<?xml version="1.0" encoding="UTF-8" standalone="no"?>
<svg width="22px" height="22px" viewBox="0 0 22 22" version="1.1" xmlns="http://www.w3.org/2000/svg" xmlns:xlink="http://www.w3.org/1999/xlink">
    <!-- Generator: Sketch 3.6.1 (26313) - http://www.bohemiancoding.com/sketch -->
    <title>Shape</title>
    <desc>Created with Sketch.</desc>
    <defs></defs>
    <g id="03.-Registrazione" stroke="none" stroke-width="1" fill="none" fill-rule="evenodd">
        <g id="6_registration-3" transform="translate(-238.000000, -79.000000)" fill="#60B670">
            <g id="foto-profilo-+-Add_icon" transform="translate(128.000000, 79.000000)">
                <g id="plus-circled" transform="translate(110.000000, 0.000000)">
                    <g id="Layer_1">
                        <path d="M11,0 C4.92544643,0 0,4.92544643 0,11 C0,17.0745536 4.92544643,22 11,22 C17.0745536,22 22,17.0745536 22,11 C22,4.92544643 17.0745536,0 11,0 L11,0 Z M17.2857143,11.7857143 L11.7857143,11.7857143 L11.7857143,17.2857143 L10.2142857,17.2857143 L10.2142857,11.7857143 L4.71428571,11.7857143 L4.71428571,10.2142857 L10.2142857,10.2142857 L10.2142857,4.71428571 L11.7857143,4.71428571 L11.7857143,10.2142857 L17.2857143,10.2142857 L17.2857143,11.7857143 L17.2857143,11.7857143 Z" id="Shape"></path>
                    </g>
                </g>
            </g>
        </g>
    </g>
</svg>