<?xml version="1.0" encoding="UTF-8" standalone="no"?>
<svg width="33px" height="36px" viewBox="0 0 33 36" version="1.1" xmlns="http://www.w3.org/2000/svg" xmlns:xlink="http://www.w3.org/1999/xlink">
    <!-- Generator: Sketch 3.6.1 (26313) - http://www.bohemiancoding.com/sketch -->
    <title>activity</title>
    <desc>Created with Sketch.</desc>
    <defs>
        <path id="path-1" d="M11.26125,9.20295 L11.26125,0.81495 L0.892250806,0.81495 L0.892250806,9.20295 L11.26125,9.20295 L11.26125,9.20295 Z"></path>
    </defs>
    <g id="09.-Profile" stroke="none" stroke-width="1" fill="none" fill-rule="evenodd">
        <g id="16_1_icare" transform="translate(-36.000000, -510.000000)">
            <g id="activity" transform="translate(36.000000, 510.000000)">
                <path d="M21.3817911,3.303045 C21.3817911,5.130045 22.8702508,6.610545 24.7025492,6.610545 C26.543896,6.610545 28.0278315,5.130045 28.0278315,3.303045 C28.0278315,1.480545 26.543896,4.49999999e-05 24.7025492,4.49999999e-05 C22.8702508,4.49999999e-05 21.3817911,1.480545 21.3817911,3.303045" id="Fill-1" fill="#FEFEFE"></path>
                <path d="M12.0253065,18.774945 L9.01671774,23.103945 C9.01671774,23.103945 3.9948629,23.450445 2.19875806,23.558445 C0.827927419,23.639445 0,24.147945 0,25.034445 C0,25.920945 0.696725806,26.415945 2.67832258,26.573445 C4.34775,26.708445 10.0527581,27.054945 10.0527581,27.054945 L10.0663306,27.054945 C10.7404355,27.054945 11.4371613,26.703945 11.898629,26.028945 L14.8348306,21.857445" id="Fill-3" fill="#FEFEFE"></path>
                <g id="Group-7" transform="translate(6.653226, 4.793419)" fill="#FEFEFE">
                    <path d="M16.8273387,17.5752265 L11.7285726,14.1012265 L16.9178226,5.83022647 C17.2118952,5.38922647 17.4200081,4.21472647 16.9766371,3.91772647 L14.0630565,1.97372647 C13.8594677,1.79822647 13.6151613,1.66322647 13.3346613,1.60472647 L7.5075,0.344726471 C7.05960484,0.250226471 6.5936129,0.340226471 6.21358065,0.592226471 L1.41793548,4.27322647 C0.630725806,4.95272647 -0.124814516,5.79872647 0.395467742,6.56372647 C0.730258065,7.05422647 1.86583065,6.77522647 2.46302419,6.41522647 L7.49392742,3.76022647 L10.8056371,4.47572647 L6.34025806,11.0772265 C5.31779032,12.8412265 4.97395161,14.2002265 6.81982258,15.7617265 L13.1672661,19.9377265 L10.5115645,26.4537265 C9.51171774,28.8432265 9.68816129,30.0672265 10.3758387,30.3552265 C11.0635161,30.6432265 12.0678871,30.3147265 13.4930081,27.7137265 L17.5285887,20.0457265 C17.9267177,19.1592265 17.628121,18.1242265 16.8273387,17.5752265" id="Fill-5"></path>
                </g>
                <g id="Group-10" transform="translate(21.290323, 8.234595)">
                    <mask id="mask-2" fill="white">
                        <use xlink:href="#path-1"></use>
                    </mask>
                    <g id="Clip-9"></g>
                    <path d="M0.892250806,5.00895 L2.17712177,8.08245 C2.41690403,8.61345 2.95980726,9.13545 3.54795242,9.20295 C3.54795242,9.20295 7.63329919,9.11745 8.74625081,9.05445 C9.92254113,8.99145 11.2345573,8.77545 11.2617024,7.97445 C11.3069444,6.83145 10.2211379,6.74595 9.16247661,6.66945 L5.04093629,6.32295 L2.59787177,0.81495" id="Fill-8" fill="#FEFEFE" mask="url(#mask-2)"></path>
                </g>
            </g>
        </g>
    </g>
</svg>