<?xml version="1.0" encoding="UTF-8" standalone="no"?>
<svg width="26px" height="23px" viewBox="0 0 26 23" version="1.1" xmlns="http://www.w3.org/2000/svg" xmlns:xlink="http://www.w3.org/1999/xlink">
    <!-- Generator: Sketch 3.6.1 (26313) - http://www.bohemiancoding.com/sketch -->
    <title>heart_beat</title>
    <desc>Created with Sketch.</desc>
    <defs>
        <path id="path-1" d="M25.9230214,0.00172883333 L0,0.00172883333 L0,22.7152255 L25.9230214,22.7152255 L25.9230214,0.00172883333 L25.9230214,0.00172883333 Z"></path>
    </defs>
    <g id="09.-Profile" stroke="none" stroke-width="1" fill="none" fill-rule="evenodd">
        <g id="16_1_icare" transform="translate(-39.000000, -425.000000)">
            <g id="heart_beat" transform="translate(39.000000, 425.000000)">
                <mask id="mask-2" fill="white">
                    <use xlink:href="#path-1"></use>
                </mask>
                <g id="Clip-2"></g>
                <path d="M18.8528786,4.21666667e-05 C16.3917,4.21666667e-05 14.2272,1.2608255 12.9610929,3.1709755 C11.6949857,1.2608255 9.53048571,4.21666667e-05 7.06930714,4.21666667e-05 C3.16652143,4.21666667e-05 -0.000835714286,3.1709755 -0.000835714286,7.0798255 C-0.000835714286,15.3402755 9.42602143,19.7677755 12.9610929,22.7152255 C16.4961643,19.7677755 25.9230214,15.3402755 25.9230214,7.0798255 C25.9230214,3.1709755 22.7556643,4.21666667e-05 18.8528786,4.21666667e-05" id="Fill-1" fill="#FFFFFF" mask="url(#mask-2)"></path>
            </g>
        </g>
    </g>
</svg>