<?xml version="1.0" encoding="UTF-8" standalone="no"?>
<svg width="35px" height="35px" viewBox="0 0 35 35" version="1.1" xmlns="http://www.w3.org/2000/svg" xmlns:xlink="http://www.w3.org/1999/xlink">
    <!-- Generator: Sketch 3.6.1 (26313) - http://www.bohemiancoding.com/sketch -->
    <title>2_noon</title>
    <desc>Created with Sketch.</desc>
    <defs></defs>
    <g id="10.-Reminder" stroke="none" stroke-width="1" fill="none" fill-rule="evenodd">
        <g id="20_reminder-details" transform="translate(-33.000000, -264.000000)" fill="#DADADA">
            <g id="reminder-set" transform="translate(33.000000, 209.000000)">
                <g id="2_noon" transform="translate(0.000000, 55.000000)">
                    <path d="M17.4136986,22.7835616 C14.460274,22.7835616 12.0443151,20.3671233 12.0443151,17.4136986 C12.0443151,14.460274 14.460274,12.0443151 17.4136986,12.0443151 C20.3671233,12.0443151 22.7835616,14.460274 22.7835616,17.4136986 C22.7835616,20.3671233 20.3671233,22.7835616 17.4136986,22.7835616 M17.4136986,8.97486301 C12.7730822,8.97486301 8.97486301,12.7730822 8.97486301,17.4136986 C8.97486301,22.0547945 12.7730822,25.8530137 17.4136986,25.8530137 C22.0547945,25.8530137 25.8530137,22.0547945 25.8530137,17.4136986 C25.8530137,12.7730822 22.0547945,8.97486301 17.4136986,8.97486301" id="Fill-1"></path>
                    <path d="M17.4136986,6.17486301 C18.2565753,6.17486301 18.9479452,5.48541096 18.9479452,4.64109589 L18.9479452,1.53376712 C18.9479452,0.690890411 18.2565753,0 17.4136986,0 C16.5693836,0 15.8799315,0.690890411 15.8799315,1.53376712 L15.8799315,4.64109589 C15.8799315,5.52328767 16.5693836,6.17486301 17.4136986,6.17486301" id="Fill-3"></path>
                    <path d="M33.2936301,15.8799315 L30.1867808,15.8799315 C29.3419863,15.8799315 28.6530137,16.5693836 28.6530137,17.4136986 C28.6530137,18.2565753 29.3419863,18.9479452 30.1867808,18.9479452 L33.2936301,18.9479452 C34.1365068,18.9479452 34.8278767,18.2565753 34.8278767,17.4136986 C34.8278767,16.5693836 34.1365068,15.8799315 33.2936301,15.8799315" id="Fill-5"></path>
                    <path d="M17.4136986,28.6530137 C16.5693836,28.6530137 15.8799315,29.3419863 15.8799315,30.1867808 L15.8799315,33.2936301 C15.8799315,34.1365068 16.5693836,34.8278767 17.4136986,34.8278767 C18.2565753,34.8278767 18.9479452,34.1365068 18.9479452,33.2936301 L18.9479452,30.1867808 C18.9479452,29.304589 18.2565753,28.6530137 17.4136986,28.6530137" id="Fill-7"></path>
                    <path d="M6.17486301,17.4136986 C6.17486301,16.5693836 5.48541096,15.8799315 4.64109589,15.8799315 L1.53376712,15.8799315 C0.690890411,15.8799315 0,16.5693836 0,17.4136986 C0,18.2565753 0.690890411,18.9479452 1.53376712,18.9479452 L4.64109589,18.9479452 C5.52328767,18.9479452 6.17486301,18.2565753 6.17486301,17.4136986" id="Fill-9"></path>
                    <path d="M26.4278767,9.93376712 C26.8119178,9.93376712 27.1940411,9.77986301 27.5008904,9.47493151 L29.7260274,7.24979452 C30.3402055,6.63561644 30.3402055,5.67671233 29.7260274,5.06253425 C29.1118493,4.44979452 28.1529452,4.44979452 27.5402055,5.06253425 L25.3155479,7.28719178 C24.7013699,7.90136986 24.7013699,8.86027397 25.3155479,9.47493151 C25.660274,9.77986301 26.0438356,9.93376712 26.4278767,9.93376712" id="Fill-11"></path>
                    <path d="M27.5008904,25.3529452 C26.8867123,24.7406849 25.9278082,24.7406849 25.3155479,25.3529452 C24.7013699,25.9671233 24.7013699,26.9260274 25.3155479,27.5402055 L27.5402055,29.7634247 C27.8456164,30.0707534 28.2296575,30.2241781 28.6136986,30.2241781 C28.9972603,30.2241781 29.3813014,30.0707534 29.6886301,29.7634247 C30.3008904,29.1511644 30.3008904,28.1922603 29.6886301,27.5780822 L27.5008904,25.3529452 Z" id="Fill-13"></path>
                    <path d="M7.32650685,25.3529452 L5.10184932,27.5780822 C4.48719178,28.1922603 4.48719178,29.1511644 5.10184932,29.7634247 C5.40869863,30.0707534 5.79082192,30.2241781 6.17486301,30.2241781 C6.55890411,30.2241781 6.94246575,30.0707534 7.24979452,29.7634247 L9.47493151,27.5402055 C10.0871918,26.9260274 10.0871918,25.9671233 9.47493151,25.3529452 C8.89815068,24.7406849 7.90136986,24.7406849 7.32650685,25.3529452" id="Fill-15"></path>
                    <path d="M7.32650685,9.47493151 C7.59452055,9.77986301 8.0159589,9.93376712 8.4,9.93376712 C8.78356164,9.93376712 9.16760274,9.77986301 9.47493151,9.47493151 C10.0871918,8.86027397 10.0871918,7.90136986 9.47493151,7.28719178 L7.24979452,5.06253425 C6.63561644,4.44979452 5.67671233,4.44979452 5.06253425,5.06253425 C4.44979452,5.67671233 4.44979452,6.63561644 5.06253425,7.24979452 L7.32650685,9.47493151 Z" id="Fill-17"></path>
                </g>
            </g>
        </g>
    </g>
</svg>