<?xml version="1.0" encoding="UTF-8" standalone="no"?>
<svg width="120px" height="120px" viewBox="0 0 120 120" version="1.1" xmlns="http://www.w3.org/2000/svg" xmlns:xlink="http://www.w3.org/1999/xlink" xmlns:sketch="http://www.bohemiancoding.com/sketch/ns">
    <!-- Generator: Sketch 3.4.4 (17249) - http://www.bohemiancoding.com/sketch -->
    <title>dummy</title>
    <desc>Created with Sketch.</desc>
    <defs></defs>
    <g id="Page-1" stroke="none" stroke-width="1" fill="none" fill-rule="evenodd" sketch:type="MSPage">
        <g id="dummy" sketch:type="MSLayerGroup" fill="#D8D8D8">
            <rect id="Rectangle-1" fill-opacity="0" sketch:type="MSShapeGroup" x="0" y="0" width="120" height="120"></rect>
            <path d="M110,120 C110,120 110,113.125 109.427083,109.53125 C108.958333,106.692708 105.026042,102.942708 88.3072917,96.7968751 C71.8489584,90.7552084 72.8645833,93.6979167 72.8645833,82.5781251 C72.8645833,75.3645833 76.5364584,79.5572917 78.8802084,65.8593751 C79.7916667,60.46875 80.5208333,64.0625 82.5,55.4166667 C83.5416667,50.8854167 81.7968751,50.5468751 82.0052084,48.3854167 C82.2135417,46.2239584 82.4218751,44.2968751 82.8125,39.8697917 C83.28125,34.4010417 78.2031249,20 60,20 C41.7968749,20 36.71875,34.4010417 37.2135417,39.8958333 C37.6041667,44.2968751 37.8125,46.25 38.0208333,48.4114584 C38.2291667,50.5729167 36.4843749,50.9114584 37.5260416,55.4427084 C39.5052083,64.0625 40.2343749,60.46875 41.1458333,65.8854167 C43.4895833,79.5833333 47.1614583,75.3906251 47.1614583,82.6041667 C47.1614583,93.75 48.1770833,90.8072917 31.71875,96.8229167 C15,102.942708 11.0416667,106.71875 10.5989583,109.557292 C10,113.125 10,120 10,120 L60,120 L110,120 L110,120 L110,120 L110,120 L110,120 Z" id="Shape" sketch:type="MSShapeGroup"></path>
        </g>
    </g>
</svg>