<?xml version="1.0" encoding="UTF-8" standalone="no"?>
<svg width="20px" height="15px" viewBox="0 0 20 15" version="1.1" xmlns="http://www.w3.org/2000/svg" xmlns:xlink="http://www.w3.org/1999/xlink">
    <!-- Generator: Sketch 3.6.1 (26313) - http://www.bohemiancoding.com/sketch -->
    <title>android-mail</title>
    <desc>Created with Sketch.</desc>
    <defs></defs>
    <g id="06.-Pharmacy-info" stroke="none" stroke-width="1" fill="none" fill-rule="evenodd">
        <g id="8_pharmacy-info" transform="translate(-178.000000, -516.000000)" fill="#FFFFFF">
            <g id="Group-2" transform="translate(93.000000, 498.000000)">
                <g id="android-mail" transform="translate(85.000000, 18.000000)">
                    <g id="Layer_1">
                        <g id="Icon_19_">
                            <path d="M18.0951786,0 L1.90482143,0 C0.857098214,0 0,0.818096591 0,1.81819602 L0,13.181804 C0,14.1819034 0.857098214,15 1.90482143,15 L18.0951786,15 C19.1429018,15 20,14.1819034 20,13.181804 L20,1.81819602 C20,0.818096591 19.1429018,0 18.0951786,0 L18.0951786,0 Z M17.8571429,3.86365057 L10,8.86363636 L2.14285714,3.86365057 L2.14285714,2.04545455 L10,7.04544034 L17.8571429,2.04545455 L17.8571429,3.86365057 L17.8571429,3.86365057 Z" id="Shape"></path>
                        </g>
                    </g>
                </g>
            </g>
        </g>
    </g>
</svg>