<?xml version="1.0" encoding="UTF-8" standalone="no"?>
<svg width="18px" height="18px" viewBox="0 0 18 18" version="1.1" xmlns="http://www.w3.org/2000/svg" xmlns:xlink="http://www.w3.org/1999/xlink">
    <!-- Generator: Sketch 3.6.1 (26313) - http://www.bohemiancoding.com/sketch -->
    <title>ios-telephone</title>
    <desc>Created with Sketch.</desc>
    <defs></defs>
    <g id="06.-Pharmacy-info" stroke="none" stroke-width="1" fill="none" fill-rule="evenodd">
        <g id="8_pharmacy-info" transform="translate(-109.000000, -514.000000)" fill="#FFFFFF">
            <g id="Group-2" transform="translate(93.000000, 498.000000)">
                <g id="ios-telephone" transform="translate(16.000000, 16.000000)">
                    <g id="Layer_1">
                        <path d="M17.1790368,13.0283286 C16.4345609,12.2634561 14.3184136,10.8305949 12.9314448,10.8305949 C12.6101983,10.8305949 12.329745,10.901983 12.1002833,11.0498584 C11.4220963,11.4832861 10.8815864,11.81983 10.6215297,11.81983 C10.4787535,11.81983 10.325779,11.6923513 9.98923513,11.4016997 L9.93314448,11.3507082 C9,10.5399433 8.80113314,10.3308782 8.43909348,9.95354108 L8.34730878,9.85665722 C8.28101983,9.79036827 8.22492918,9.72917847 8.16883853,9.67308782 C7.85269122,9.34674221 7.62322946,9.1121813 6.81246459,8.19433428 L6.77677054,8.15354108 C6.38923513,7.71501416 6.13427762,7.42946176 6.11898017,7.2203966 C6.10368272,7.01643059 6.28215297,6.68498584 6.73597734,6.06798867 C7.28668555,5.32351275 7.30708215,4.40566572 6.80226629,3.33994334 C6.39943343,2.49858357 5.74164306,1.69291785 5.16033994,0.984135977 L5.10934844,0.922946176 C4.60963173,0.311048159 4.02832861,0.00509915014 3.38073654,0.00509915014 C2.66175637,0.00509915014 2.06515581,0.392634561 1.7490085,0.596600567 C1.72351275,0.611898017 1.698017,0.632294618 1.67252125,0.647592068 C0.963739377,1.09631728 0.448725212,1.71331445 0.254957507,2.34050992 C-0.035694051,3.28385269 -0.229461756,4.50764873 1.16260623,7.05212465 C2.36600567,9.25495751 3.4572238,10.733711 5.19093484,12.5133144 C6.82266289,14.1858357 7.54674221,14.7263456 9.16827195,15.8991501 C10.9733711,17.2045326 12.7070822,17.9541076 13.9206799,17.9541076 C15.0475921,17.9541076 15.9348442,17.9541076 17.1994334,16.4294618 C18.5252125,14.8283286 17.9745042,13.8492918 17.1790368,13.0283286 L17.1790368,13.0283286 Z" id="Shape"></path>
                    </g>
                </g>
            </g>
        </g>
    </g>
</svg>