<?xml version="1.0" encoding="UTF-8" standalone="no"?>
<svg width="35px" height="23px" viewBox="0 0 35 23" version="1.1" xmlns="http://www.w3.org/2000/svg" xmlns:xlink="http://www.w3.org/1999/xlink">
    <!-- Generator: Sketch 3.6.1 (26313) - http://www.bohemiancoding.com/sketch -->
    <title>1_morning</title>
    <desc>Created with Sketch.</desc>
    <defs></defs>
    <g id="10.-Reminder" stroke="none" stroke-width="1" fill="none" fill-rule="evenodd">
        <g id="20_reminder-details" transform="translate(-33.000000, -209.000000)" fill="#DADADA">
            <g id="reminder-set" transform="translate(33.000000, 209.000000)">
                <g id="1_morning">
                    <path d="M17.4136986,6.20577597 C18.2565753,6.20577597 18.9479452,5.51287234 18.9479452,4.66433041 L18.9479452,1.54144556 C18.9479452,0.694349186 18.2565753,0 17.4136986,0 C16.5693836,0 15.8799315,0.694349186 15.8799315,1.54144556 L15.8799315,4.66433041 C15.8799315,5.55093867 16.5693836,6.20577597 17.4136986,6.20577597" id="Fill-1"></path>
                    <path d="M26.4278767,9.90640175 C26.8119178,9.90640175 27.1940411,9.75172716 27.5008904,9.44526909 L29.7260274,7.20899249 C30.3402055,6.59173967 30.3402055,5.62803504 29.7260274,5.01030038 C29.1118493,4.39497497 28.1529452,4.39497497 27.5402055,5.01030038 L25.3155479,7.24657697 C24.7013699,7.86382979 24.7013699,8.82753442 25.3155479,9.44526909 C25.660274,9.75172716 26.0438356,9.90640175 26.4278767,9.90640175" id="Fill-3"></path>
                    <path d="M7.32650685,9.44526909 C7.59452055,9.75172716 8.0159589,9.90640175 8.4,9.90640175 C8.78356164,9.90640175 9.16760274,9.75172716 9.47493151,9.44526909 C10.0871918,8.82753442 10.0871918,7.86382979 9.47493151,7.24657697 L7.24979452,5.01030038 C6.63561644,4.39497497 5.67671233,4.39497497 5.06253425,5.01030038 C4.44979452,5.62803504 4.44979452,6.59173967 5.06253425,7.20899249 L7.32650685,9.44526909 Z" id="Fill-5"></path>
                    <path d="M33.2936301,19.4282854 L1.53376712,19.4282854 C0.690890411,19.4282854 0,20.1231164 0,20.9702128 C0,21.8187547 0.690890411,22.5116583 1.53376712,22.5116583 L33.2936301,22.5116583 C34.1365068,22.5116583 34.8278767,21.8187547 34.8278767,20.9702128 C34.8278767,20.1231164 34.1365068,19.4282854 33.2936301,19.4282854" id="Fill-7"></path>
                    <path d="M10.3571233,17.1549061 C11.1621233,17.3842678 12.005,16.8836233 12.2356164,16.0365269 C12.8497945,13.6460576 14.9977397,11.9880038 17.4510959,11.9880038 C19.9068493,11.9880038 22.0547945,13.6460576 22.6689726,16.0365269 C22.860274,16.7294305 23.4744521,17.1924906 24.1634247,17.1924906 C24.2799315,17.1924906 24.4333562,17.1924906 24.5474658,17.1549061 C25.3529452,16.9231352 25.8530137,16.1136233 25.660274,15.2650814 C24.7013699,11.5268711 21.3260274,8.90463079 17.490411,8.90463079 C13.6547945,8.90463079 10.2799315,11.5268711 9.3210274,15.2650814 C9.01417808,16.1136233 9.51232877,16.9607196 10.3571233,17.1549061" id="Fill-9"></path>
                </g>
            </g>
        </g>
    </g>
</svg>