<?xml version="1.0" encoding="UTF-8" standalone="no"?>
<svg width="29px" height="25px" viewBox="0 0 29 25" version="1.1" xmlns="http://www.w3.org/2000/svg" xmlns:xlink="http://www.w3.org/1999/xlink">
    <!-- Generator: Sketch 3.6.1 (26313) - http://www.bohemiancoding.com/sketch -->
    <title>4_night</title>
    <desc>Created with Sketch.</desc>
    <defs>
        <path id="path-1" d="M22.2379583,0.18225 L0,0.18225 L0,24.1071429 L29.0566875,24.1071429 L29.0566875,0.18225 L22.2379583,0.18225 L22.2379583,24.1071429 L9.20161118e-06,24.1071429 L9.20161118e-06,0.182121881 L22.2379583,0.182121881 L22.2379583,0.18225 Z"></path>
        <path id="path-3" d="M3.3848125,3.54808929 L3.3848125,0.463339286 L0.285878125,0.463339286 L0.285878125,3.54808929 L3.3848125,3.54808929 L3.3848125,3.54808929 Z"></path>
    </defs>
    <g id="10.-Reminder" stroke="none" stroke-width="1" fill="none" fill-rule="evenodd">
        <g id="20_reminder-details" transform="translate(-36.000000, -384.000000)">
            <g id="reminder-set" transform="translate(33.000000, 209.000000)">
                <g id="4_night" transform="translate(3.000000, 175.000000)">
                    <g id="Page-1" transform="translate(0.000000, 0.141807)">
                        <g id="Group-3" transform="translate(0.000000, 0.300038)">
                            <mask id="mask-2" fill="white">
                                <use xlink:href="#path-1"></use>
                            </mask>
                            <g id="Clip-2"></g>
                        </g>
                        <path d="M17.0442844,10.9843232 C17.3940031,10.9843232 17.7422688,10.8300375 18.0130344,10.5981268 C18.2852531,10.3666982 18.4005344,10.0200375 18.4005344,9.63384107 C18.4005344,9.28718036 18.2455344,8.93907321 18.0130344,8.66955536 C17.5092844,8.16860893 16.6185188,8.16860893 16.1152531,8.66955536 C15.84255,8.90146607 15.7272688,9.28718036 15.7272688,9.63384107 C15.7272688,9.98050179 15.8822688,10.3290911 16.1152531,10.5981268 C16.3477531,10.8300375 16.6960188,10.9843232 17.0442844,10.9843232" id="Fill-4" fill="#DADADA"></path>
                        <path d="M22.4688,0.955269643 C22.0052531,0.955269643 21.57755,1.14764464 21.2292844,1.45621607 C20.9192844,1.76526964 20.7260187,2.22860893 20.7260187,2.69194821 C20.7260187,3.15335893 20.9192844,3.57909107 21.2292844,3.92526964 C21.5397687,4.23432321 22.0052531,4.42621607 22.4688,4.42621607 C22.9342844,4.42621607 23.36005,4.23432321 23.7097687,3.92526964 C24.0202531,3.61669821 24.2130344,3.15335893 24.2130344,2.69194821 C24.2130344,2.22860893 24.0202531,1.80480536 23.7097687,1.45621607 C23.36005,1.14764464 22.9342844,0.955269643 22.4688,0.955269643" id="Fill-6" fill="#DADADA"></path>
                        <g id="Group-10" transform="translate(25.671875, 9.942895)">
                            <mask id="mask-4" fill="white">
                                <use xlink:href="#path-3"></use>
                            </mask>
                            <g id="Clip-9"></g>
                            <path d="M2.919425,0.92475 C2.64914375,0.655232143 2.22337812,0.463339286 1.83539375,0.463339286 C1.44740937,0.463339286 1.02164375,0.615696429 0.749425,0.92475 C0.478659375,1.19571429 0.285878125,1.61951786 0.285878125,2.00571429 C0.285878125,2.39191071 0.440878125,2.81571429 0.749425,3.08475 C1.05990937,3.35619643 1.44740937,3.54808929 1.83539375,3.54808929 C2.22337812,3.54808929 2.64914375,3.39380357 2.919425,3.08475 C3.22990937,2.77617857 3.38490937,2.39191071 3.38490937,2.00571429 C3.38490937,1.61951786 3.22990937,1.19571429 2.919425,0.92475" id="Fill-8" fill="#DADADA" mask="url(#mask-4)"></path>
                        </g>
                    </g>
                    <path d="M12.0072687,21.4618264 C8.8288,21.4618264 5.88428437,19.7651657 4.29505,17.0265942 C1.85428437,12.8608799 3.2488,7.50041565 7.39650312,4.99182637 C6.03976875,8.15612994 6.19476875,11.8189692 7.97726875,14.9061299 C9.72150312,17.9137371 12.8210187,19.9589871 16.3080344,20.3827907 C14.9910187,21.0780407 13.5190031,21.4618264 12.0072687,21.4618264 M20.1830344,16.9494514 C19.3692844,17.2208978 18.5163,17.3356478 17.6647687,17.3356478 C14.7585187,17.3356478 12.0847687,15.7932728 10.6505344,13.3242192 C8.75275312,10.0451657 9.44928437,5.84136208 12.2780344,3.29516565 C12.7813,2.87136208 12.9363,2.13850494 12.6655344,1.56041565 C12.3952531,0.942790651 11.7747687,0.556594223 11.1160187,0.63373708 C9.29428437,0.750415651 7.55150312,1.28945137 5.96226875,2.21564779 C0.26505,5.53230851 -1.71023125,12.8608799 1.62178437,18.5689692 C3.75400312,22.2342192 7.74428437,24.5489871 12.0072687,24.5489871 C14.0997687,24.5489871 16.1927531,24.0085049 18.0130344,22.9289871 C19.6022687,22.0027907 20.9192844,20.8065942 21.9655344,19.2642192 C22.3530344,18.7237371 22.3152531,17.9908799 21.9277531,17.4503978 C21.50005,16.9494514 20.8035187,16.7575585 20.1830344,16.9494514" id="Fill-1" fill="#DADADA"></path>
                </g>
            </g>
        </g>
    </g>
</svg>