<?xml version="1.0" encoding="UTF-8" standalone="no"?>
<svg width="24px" height="16px" viewBox="0 0 24 16" version="1.1" xmlns="http://www.w3.org/2000/svg" xmlns:xlink="http://www.w3.org/1999/xlink">
    <!-- Generator: Sketch 3.6.1 (26313) - http://www.bohemiancoding.com/sketch -->
    <title>1_morning_small</title>
    <desc>Created with Sketch.</desc>
    <defs></defs>
    <g id="11.-New-Reminder" stroke="none" stroke-width="1" fill="none" fill-rule="evenodd">
        <g id="21_1_new-reminder" transform="translate(-36.000000, -199.000000)" fill="#DADADA">
            <g id="Group" transform="translate(13.000000, 183.000000)">
                <g id="1_morning_small" transform="translate(23.000000, 16.000000)">
                    <path d="M11.6074739,4.13659294 C12.1693115,4.13659294 12.6301589,3.67472318 12.6301589,3.10910938 L12.6301589,1.02748356 C12.6301589,0.462833328 12.1693115,0 11.6074739,0 C11.0446776,0 10.5851086,0.462833328 10.5851086,1.02748356 L10.5851086,3.10910938 C10.5851086,3.70009711 11.0446776,4.13659294 11.6074739,4.13659294" id="Fill-1"></path>
                    <path d="M17.6160675,6.60332435 C17.8720583,6.60332435 18.1267708,6.50022268 18.3313077,6.29594649 L19.8145205,4.80530841 C20.223914,4.39386532 20.223914,3.75148735 19.8145205,3.33972307 C19.4051269,2.92956473 18.7659488,2.92956473 18.357514,3.33972307 L16.8746209,4.83036115 C16.4652273,5.24180424 16.4652273,5.88418221 16.8746209,6.29594649 C17.1044054,6.50022268 17.3600767,6.60332435 17.6160675,6.60332435" id="Fill-3"></path>
                    <path d="M4.88364012,6.29594649 C5.06229039,6.50022268 5.34320916,6.60332435 5.59919998,6.60332435 C5.85487121,6.60332435 6.11086203,6.50022268 6.31571861,6.29594649 C6.72383381,5.88418221 6.72383381,5.24180424 6.31571861,4.83036115 L4.83250587,3.33972307 C4.42311231,2.92956473 3.78393423,2.92956473 3.37454067,3.33972307 C2.96610588,3.75148735 2.96610588,4.39386532 3.37454067,4.80530841 L4.88364012,6.29594649 Z" id="Fill-5"></path>
                    <path d="M22.1925825,12.9503399 L1.02236534,12.9503399 C0.460527807,12.9503399 0,13.4134944 0,13.9781446 C0,14.5437584 0.460527807,15.0056282 1.02236534,15.0056282 L22.1925825,15.0056282 C22.7544201,15.0056282 23.2152675,14.5437584 23.2152675,13.9781446 C23.2152675,13.4134944 22.7544201,12.9503399 22.1925825,12.9503399" id="Fill-7"></path>
                    <path d="M6.90376244,11.4349703 C7.44035244,11.5878562 8.00218997,11.2541409 8.1559123,10.6894906 C8.56530586,9.09607206 9.99706476,7.99086076 11.6324019,7.99086076 C13.2693369,7.99086076 14.7010958,9.09607206 15.1104894,10.6894906 C15.2380054,11.1513604 15.647399,11.460023 16.1066484,11.460023 C16.1843086,11.460023 16.2865771,11.460023 16.3626393,11.4349703 C16.8995488,11.2804783 17.2328802,10.7408809 17.1044054,10.1752671 C16.4652273,7.6834829 14.2153205,5.93557245 11.6586082,5.93557245 C9.10189586,5.93557245 6.85230861,7.6834829 6.21313053,10.1752671 C6.00859354,10.7408809 6.34064655,11.3055311 6.90376244,11.4349703" id="Fill-9"></path>
                </g>
            </g>
        </g>
    </g>
</svg>