<?xml version="1.0" encoding="UTF-8" standalone="no"?>
<svg width="20px" height="17px" viewBox="0 0 20 17" version="1.1" xmlns="http://www.w3.org/2000/svg" xmlns:xlink="http://www.w3.org/1999/xlink">
    <!-- Generator: Sketch 3.6.1 (26313) - http://www.bohemiancoding.com/sketch -->
    <title>4_night_small</title>
    <desc>Created with Sketch.</desc>
    <defs>
        <path id="path-1" d="M14.8253056,0.1215 L0,0.1215 L0,16.0714286 L19.371125,16.0714286 L19.371125,0.1215 L14.8253056,0.1215 L14.8253056,16.0714286 L6.13440745e-06,16.0714286 L6.13440745e-06,0.121414587 L14.8253056,0.121414587 L14.8253056,0.1215 Z"></path>
        <path id="path-3" d="M2.25654167,2.36539286 L2.25654167,0.308892857 L0.190585417,0.308892857 L0.190585417,2.36539286 L2.25654167,2.36539286 L2.25654167,2.36539286 Z"></path>
    </defs>
    <g id="11.-New-Reminder" stroke="none" stroke-width="1" fill="none" fill-rule="evenodd">
        <g id="21_1_new-reminder" transform="translate(-248.000000, -198.000000)">
            <g id="Group" transform="translate(13.000000, 183.000000)">
                <g id="4_night_small" transform="translate(235.000000, 15.000000)">
                    <g id="Page-1" transform="translate(0.000000, 0.094538)">
                        <g id="Group-3" transform="translate(0.000000, 0.200025)">
                            <mask id="mask-2" fill="white">
                                <use xlink:href="#path-1"></use>
                            </mask>
                            <g id="Clip-2"></g>
                        </g>
                        <path d="M11.3628563,7.32288214 C11.5960021,7.32288214 11.8281792,7.220025 12.0086896,7.06541786 C12.1901688,6.91113214 12.2670229,6.680025 12.2670229,6.42256071 C12.2670229,6.19145357 12.1636896,5.95938214 12.0086896,5.77970357 C11.6728563,5.44573929 11.0790125,5.44573929 10.7435021,5.77970357 C10.5617,5.93431071 10.4848458,6.19145357 10.4848458,6.42256071 C10.4848458,6.65366786 10.5881792,6.88606071 10.7435021,7.06541786 C10.8985021,7.220025 11.1306792,7.32288214 11.3628563,7.32288214" id="Fill-4" fill="#DADADA"></path>
                        <path d="M14.9792,0.636846429 C14.6701687,0.636846429 14.3850333,0.765096429 14.1528562,0.970810714 C13.9461896,1.17684643 13.8173458,1.48573929 13.8173458,1.79463214 C13.8173458,2.10223929 13.9461896,2.38606071 14.1528562,2.61684643 C14.3598458,2.82288214 14.6701687,2.95081071 14.9792,2.95081071 C15.2895229,2.95081071 15.5733667,2.82288214 15.8065125,2.61684643 C16.0135021,2.41113214 16.1420229,2.10223929 16.1420229,1.79463214 C16.1420229,1.48573929 16.0135021,1.20320357 15.8065125,0.970810714 C15.5733667,0.765096429 15.2895229,0.636846429 14.9792,0.636846429" id="Fill-6" fill="#DADADA"></path>
                        <g id="Group-10" transform="translate(17.114583, 6.628596)">
                            <mask id="mask-4" fill="white">
                                <use xlink:href="#path-3"></use>
                            </mask>
                            <g id="Clip-9"></g>
                            <path d="M1.94628333,0.6165 C1.76609583,0.436821429 1.48225208,0.308892857 1.22359583,0.308892857 C0.964939583,0.308892857 0.681095833,0.410464286 0.499616667,0.6165 C0.31910625,0.797142857 0.190585417,1.07967857 0.190585417,1.33714286 C0.190585417,1.59460714 0.29391875,1.87714286 0.499616667,2.0565 C0.70660625,2.23746429 0.964939583,2.36539286 1.22359583,2.36539286 C1.48225208,2.36539286 1.76609583,2.26253571 1.94628333,2.0565 C2.15327292,1.85078571 2.25660625,1.59460714 2.25660625,1.33714286 C2.25660625,1.07967857 2.15327292,0.797142857 1.94628333,0.6165" id="Fill-8" fill="#DADADA" mask="url(#mask-4)"></path>
                        </g>
                    </g>
                    <path d="M8.00484583,14.3078842 C5.88586667,14.3078842 3.92285625,13.1767771 2.86336667,11.3510628 C1.23618958,8.57391996 2.16586667,5.0002771 4.93100208,3.32788424 C4.0265125,5.43741996 4.12984583,7.87931282 5.31817917,9.93741996 C6.48100208,11.9424914 8.54734583,13.3059914 10.8720229,13.5885271 C9.9940125,14.0520271 9.01266875,14.3078842 8.00484583,14.3078842 M13.4553562,11.2996342 C12.9128562,11.4805985 12.3442,11.5570985 11.7765125,11.5570985 C9.8390125,11.5570985 8.0565125,10.5288485 7.10035625,8.88281282 C5.83516875,6.6967771 6.29952292,3.89424139 8.18535625,2.1967771 C8.52086667,1.91424139 8.6242,1.42566996 8.44368958,1.0402771 C8.26350208,0.628527101 7.84984583,0.371062815 7.41067917,0.422491387 C6.19618958,0.500277101 5.03433542,0.859634244 3.97484583,1.47709853 C0.1767,3.68820567 -1.14015417,8.57391996 1.08118958,12.3793128 C2.50266875,14.8228128 5.16285625,16.3659914 8.00484583,16.3659914 C9.39984583,16.3659914 10.7951687,16.00567 12.0086896,15.2859914 C13.0681792,14.6685271 13.9461896,13.8710628 14.6436896,12.8428128 C14.9020229,12.4824914 14.8768354,11.99392 14.6185021,11.6335985 C14.3333667,11.2996342 13.8690125,11.1717057 13.4553562,11.2996342" id="Fill-1" fill="#DADADA"></path>
                </g>
            </g>
        </g>
    </g>
</svg>