<?xml version="1.0" encoding="UTF-8" standalone="no"?>
<svg width="24px" height="24px" viewBox="0 0 24 24" version="1.1" xmlns="http://www.w3.org/2000/svg" xmlns:xlink="http://www.w3.org/1999/xlink">
    <!-- Generator: Sketch 3.6.1 (26313) - http://www.bohemiancoding.com/sketch -->
    <title>2_noon_small</title>
    <desc>Created with Sketch.</desc>
    <defs></defs>
    <g id="11.-New-Reminder" stroke="none" stroke-width="1" fill="none" fill-rule="evenodd">
        <g id="21_1_new-reminder" transform="translate(-106.000000, -195.000000)" fill="#DADADA">
            <g id="Group" transform="translate(13.000000, 183.000000)">
                <g id="2_noon_small" transform="translate(93.000000, 12.000000)">
                    <path d="M11.6074739,15.1868712 C9.63880545,15.1868712 8.02839628,13.5761424 8.02839628,11.6074739 C8.02839628,9.63880545 9.63880545,8.02839628 11.6074739,8.02839628 C13.5761424,8.02839628 15.1868712,9.63880545 15.1868712,11.6074739 C15.1868712,13.5761424 13.5761424,15.1868712 11.6074739,15.1868712 M11.6074739,5.98238724 C8.51417162,5.98238724 5.98238724,8.51417162 5.98238724,11.6074739 C5.98238724,14.7010958 8.51417162,17.2328802 11.6074739,17.2328802 C14.7010958,17.2328802 17.2328802,14.7010958 17.2328802,11.6074739 C17.2328802,8.51417162 14.7010958,5.98238724 11.6074739,5.98238724" id="Fill-1"></path>
                    <path d="M11.6074739,4.11598725 C12.1693115,4.11598725 12.6301589,3.65641821 12.6301589,3.09362191 L12.6301589,1.02236534 C12.6301589,0.460527807 12.1693115,0 11.6074739,0 C11.0446776,0 10.5851086,0.460527807 10.5851086,1.02236534 L10.5851086,3.09362191 C10.5851086,3.68166574 11.0446776,4.11598725 11.6074739,4.11598725" id="Fill-3"></path>
                    <path d="M22.1925825,10.5851086 L20.1216456,10.5851086 C19.5585297,10.5851086 19.0992802,11.0446776 19.0992802,11.6074739 C19.0992802,12.1693115 19.5585297,12.6301589 20.1216456,12.6301589 L22.1925825,12.6301589 C22.7544201,12.6301589 23.2152675,12.1693115 23.2152675,11.6074739 C23.2152675,11.0446776 22.7544201,10.5851086 22.1925825,10.5851086" id="Fill-5"></path>
                    <path d="M11.6074739,19.0992802 C11.0446776,19.0992802 10.5851086,19.5585297 10.5851086,20.1216456 L10.5851086,22.1925825 C10.5851086,22.7544201 11.0446776,23.2152675 11.6074739,23.2152675 C12.1693115,23.2152675 12.6301589,22.7544201 12.6301589,22.1925825 L12.6301589,20.1216456 C12.6301589,19.5336017 12.1693115,19.0992802 11.6074739,19.0992802" id="Fill-7"></path>
                    <path d="M4.11598725,11.6074739 C4.11598725,11.0446776 3.65641821,10.5851086 3.09362191,10.5851086 L1.02236534,10.5851086 C0.460527807,10.5851086 0,11.0446776 0,11.6074739 C0,12.1693115 0.460527807,12.6301589 1.02236534,12.6301589 L3.09362191,12.6301589 C3.68166574,12.6301589 4.11598725,12.1693115 4.11598725,11.6074739" id="Fill-9"></path>
                    <path d="M17.6160675,6.62156532 C17.8720583,6.62156532 18.1267708,6.51897724 18.3313077,6.31571861 L19.8145205,4.83250587 C20.223914,4.42311231 20.223914,3.78393423 19.8145205,3.37454067 C19.4051269,2.96610588 18.7659488,2.96610588 18.357514,3.37454067 L16.8746209,4.85743382 C16.4652273,5.26682738 16.4652273,5.90600546 16.8746209,6.31571861 C17.1044054,6.51897724 17.3600767,6.62156532 17.6160675,6.62156532" id="Fill-11"></path>
                    <path d="M18.3313077,16.8995488 C17.9219142,16.4914336 17.2827361,16.4914336 16.8746209,16.8995488 C16.4652273,17.3089424 16.4652273,17.9481205 16.8746209,18.357514 L18.357514,19.8394484 C18.5610923,20.044305 18.8170831,20.1465735 19.0730739,20.1465735 C19.3287451,20.1465735 19.584736,20.044305 19.7895925,19.8394484 C20.1977077,19.4313332 20.1977077,18.7921551 19.7895925,18.3827616 L18.3313077,16.8995488 Z" id="Fill-13"></path>
                    <path d="M4.88364012,16.8995488 L3.40074698,18.3827616 C2.99103383,18.7921551 2.99103383,19.4313332 3.40074698,19.8394484 C3.60528396,20.044305 3.85999643,20.1465735 4.11598725,20.1465735 C4.37197807,20.1465735 4.6276493,20.044305 4.83250587,19.8394484 L6.31571861,18.357514 C6.72383381,17.9481205 6.72383381,17.3089424 6.31571861,16.8995488 C5.93125299,16.4914336 5.26682738,16.4914336 4.88364012,16.8995488" id="Fill-15"></path>
                    <path d="M4.88364012,6.31571861 C5.06229039,6.51897724 5.34320916,6.62156532 5.59919998,6.62156532 C5.85487121,6.62156532 6.11086203,6.51897724 6.31571861,6.31571861 C6.72383381,5.90600546 6.72383381,5.26682738 6.31571861,4.85743382 L4.83250587,3.37454067 C4.42311231,2.96610588 3.78393423,2.96610588 3.37454067,3.37454067 C2.96610588,3.78393423 2.96610588,4.42311231 3.37454067,4.83250587 L4.88364012,6.31571861 Z" id="Fill-17"></path>
                </g>
            </g>
        </g>
    </g>
</svg>