<?xml version="1.0" encoding="UTF-8" standalone="no"?>
<svg width="11px" height="3px" viewBox="0 0 11 3" version="1.1" xmlns="http://www.w3.org/2000/svg" xmlns:xlink="http://www.w3.org/1999/xlink">
    <!-- Generator: Sketch 3.6.1 (26313) - http://www.bohemiancoding.com/sketch -->
    <title>Group 6</title>
    <desc>Created with Sketch.</desc>
    <defs></defs>
    <g id="10.-Reminder" stroke="none" stroke-width="1" fill="none" fill-rule="evenodd">
        <g id="19_reminder_view" transform="translate(-334.000000, -328.000000)" fill="#DFDFDF">
            <g id="Group-5-Copy" transform="translate(13.000000, 263.000000)">
                <g id="Group-2" transform="translate(100.000000, 49.000000)">
                    <g id="Group-6" transform="translate(221.000000, 16.000000)">
                        <path d="M0,1.5 C0,2.32860577 0.647836538,3 1.44736842,3 C2.2469003,3 2.89473684,2.32860577 2.89473684,1.5 C2.89473684,0.671394231 2.2469003,0 1.44736842,0 C0.647836538,0 0,0.671394231 0,1.5 Z" id="Shape-Copy-3"></path>
                        <path d="M5.5,0 C4.70046812,0 4.05263158,0.671394231 4.05263158,1.5 C4.05263158,2.32860577 4.70046812,3 5.5,3 C6.29953188,3 6.94736842,2.32860577 6.94736842,1.5 C6.94736842,0.671394231 6.29953188,0 5.5,0 L5.5,0 Z" id="Shape-Copy-4"></path>
                        <path d="M9.55263158,0 C8.7530997,0 8.10526316,0.671394231 8.10526316,1.5 C8.10526316,2.32860577 8.7530997,3 9.55263158,3 C10.3521635,3 11,2.32860577 11,1.5 C11,0.671394231 10.3521635,0 9.55263158,0 L9.55263158,0 Z" id="Shape-Copy-5"></path>
                    </g>
                </g>
            </g>
        </g>
    </g>
</svg>