<?xml version="1.0" encoding="UTF-8" standalone="no"?>
<svg width="27px" height="20px" viewBox="0 0 27 20" version="1.1" xmlns="http://www.w3.org/2000/svg" xmlns:xlink="http://www.w3.org/1999/xlink">
    <!-- Generator: Sketch 3.6.1 (26313) - http://www.bohemiancoding.com/sketch -->
    <title>photo</title>
    <desc>Created with Sketch.</desc>
    <defs></defs>
    <g id="11.-New-Reminder" stroke="none" stroke-width="1" fill="none" fill-rule="evenodd">
        <g id="21_2_new-reminder" transform="translate(-323.000000, -112.000000)" fill="#DADADA">
            <g id="Username-Copy" transform="translate(13.000000, 96.000000)">
                <path d="M332.765067,23.998125 C332.275462,23.998125 331.876288,23.60625 331.876288,23.1228125 C331.876288,22.640625 332.275462,22.24875 332.765067,22.24875 C333.255942,22.24875 333.653846,22.640625 333.653846,23.1228125 C333.653846,23.60625 333.255942,23.998125 332.765067,23.998125 M323.5,33.5 C319.994702,33.5 317.153846,30.7021875 317.153846,27.25 C317.153846,23.7990625 319.994702,21 323.5,21 C327.004029,21 329.846154,23.7990625 329.846154,27.25 C329.846154,30.7021875 327.004029,33.5 323.5,33.5 M333.653846,19.75 L330.607058,19.75 C330.188212,19.75 329.737,19.4303125 329.605635,19.0384375 L328.817442,16.7115625 C328.684808,16.3196875 328.234865,16 327.816019,16 L319.183981,16 C318.765135,16 318.313923,16.3196875 318.182558,16.7115625 L317.394365,19.0384375 C317.261731,19.4303125 316.811788,19.75 316.392942,19.75 L313.346154,19.75 C311.950635,19.75 310.807692,20.875625 310.807692,22.25 L310.807692,33.5 C310.807692,34.874375 311.950635,36 313.346154,36 L333.653846,36 C335.049365,36 336.192308,34.874375 336.192308,33.5 L336.192308,22.25 C336.192308,20.875625 335.049365,19.75 333.653846,19.75 M323.5,23.5 C321.396567,23.5 319.692308,25.1796875 319.692308,27.25 C319.692308,29.3215625 321.396567,31 323.5,31 C325.602163,31 327.307692,29.3215625 327.307692,27.25 C327.307692,25.1796875 325.602163,23.5 323.5,23.5" id="photo"></path>
            </g>
        </g>
    </g>
</svg>