<?xml version="1.0" encoding="UTF-8" standalone="no"?>
<svg width="35px" height="35px" viewBox="0 0 35 35" version="1.1" xmlns="http://www.w3.org/2000/svg" xmlns:xlink="http://www.w3.org/1999/xlink">
    <!-- Generator: Sketch 3.6.1 (26313) - http://www.bohemiancoding.com/sketch -->
    <title>icon_reminder_popup</title>
    <desc>Created with Sketch.</desc>
    <defs></defs>
    <g id="10.-Reminder" stroke="none" stroke-width="1" fill="none" fill-rule="evenodd">
        <g id="19_popup-welcome-reminder" transform="translate(-172.000000, -164.000000)" fill="#DADADA">
            <g id="Group" transform="translate(20.000000, 124.000000)">
                <g id="icon_reminder_popup" transform="translate(152.000000, 40.000000)">
                    <g id="Layer_1">
                        <path d="M33.3061728,11.9070352 C34.3604938,10.6582915 35,9.06658291 35,7.31658291 C35.008642,3.46482412 31.9320988,0.316582915 28.0518519,0.0967336683 C27.9135802,0.0879396985 27.7839506,0.0879396985 27.637037,0.0879396985 C25.8740741,0.0791457286 24.2580247,0.685929648 22.9876543,1.67964824 L27.637037,6.28768844 L26.7209877,7.20226131 C24.5,5.49623116 21.7777778,4.38819095 18.8395062,4.13316583 L18.8395062,4.12437186 C18.8395062,3.37688442 18.2345679,2.76130653 17.5,2.76130653 C16.7654321,2.76130653 16.1604938,3.37688442 16.1604938,4.12437186 L16.1604938,4.13316583 C13.2222222,4.38819095 10.5432099,5.49623116 8.3308642,7.20226131 L7.43209877,6.29648241 L12.0814815,1.68844221 C10.8111111,0.685929648 9.19506173,0.0879396985 7.44074074,0.0967336683 C7.30246914,0.0967336683 7.16419753,0.105527638 7.02592593,0.105527638 C3.13703704,0.325376884 0.0604938272,3.47361809 0.0777777778,7.32537688 C0.0777777778,9.06658291 0.717283951,10.6670854 1.77160494,11.9158291 L6.4382716,7.29020101 L7.25925926,8.12562814 C4.22592593,10.9309045 2.32469136,14.9849246 2.32469136,19.4874372 C2.32469136,23.3479899 3.72469136,26.8743719 6.04074074,29.5741206 L2.89506173,33.4962312 L3.97530864,34.3844221 L7.01728395,30.611809 C9.74814815,33.2675879 13.4469136,34.9120603 17.5259259,34.9120603 L17.5345679,34.9120603 L17.5604938,34.9120603 C21.6395062,34.9120603 25.3555556,33.2675879 28.0864198,30.611809 L31.1283951,34.3932161 L32.191358,33.5050251 L29.037037,29.5741206 C31.3530864,26.8655779 32.7530864,23.339196 32.7530864,19.4874372 C32.7530864,14.9937186 30.8518519,10.9309045 27.8098765,8.11683417 L28.6308642,7.28140704 L33.3061728,11.9070352 L33.3061728,11.9070352 Z M18.9259259,21.7211055 L9.24691358,21.7211055 L9.24691358,20.3140704 L17.5432099,20.3140704 L17.5432099,9.05778894 L18.9259259,9.05778894 L18.9259259,21.7211055 L18.9259259,21.7211055 Z" id="Shape"></path>
                    </g>
                </g>
            </g>
        </g>
    </g>
</svg>