<?xml version="1.0" encoding="UTF-8" standalone="no"?>
<svg width="160px" height="160px" viewBox="0 0 160 160" version="1.1" xmlns="http://www.w3.org/2000/svg" xmlns:xlink="http://www.w3.org/1999/xlink">
    <!-- Generator: Sketch 3.6.1 (26313) - http://www.bohemiancoding.com/sketch -->
    <title>Group 10</title>
    <desc>Created with Sketch.</desc>
    <defs>
        <filter x="-50%" y="-50%" width="200%" height="200%" filterUnits="objectBoundingBox" id="filter-1">
            <feOffset dx="0" dy="0" in="SourceAlpha" result="shadowOffsetOuter1"></feOffset>
            <feGaussianBlur stdDeviation="2.5" in="shadowOffsetOuter1" result="shadowBlurOuter1"></feGaussianBlur>
            <feColorMatrix values="0 0 0 0 0.723798895   0 0 0 0 0.723798895   0 0 0 0 0.723798895  0 0 0 0.35 0" in="shadowBlurOuter1" type="matrix" result="shadowMatrixOuter1"></feColorMatrix>
            <feMerge>
                <feMergeNode in="shadowMatrixOuter1"></feMergeNode>
                <feMergeNode in="SourceGraphic"></feMergeNode>
            </feMerge>
        </filter>
        <path id="path-2" d="M0.00965753425,0.0849174312 L47,0.0849174312 L47,51.925896 L0.00965753425,51.925896 L0.00965753425,0.0849174312 Z"></path>
    </defs>
    <g id="06.-Pharmacy-info" stroke="none" stroke-width="1" fill="none" fill-rule="evenodd">
        <g id="8_pharmacy-info" transform="translate(-108.000000, -156.000000)">
            <g id="Group-10" transform="translate(113.000000, 161.000000)">
                <circle id="Oval-33" fill="#FFFFFF" filter="url(#filter-1)" cx="75" cy="75" r="75"></circle>
                <g id="without_logo" transform="translate(52.000000, 50.000000)">
                    <mask id="mask-3" fill="white">
                        <use xlink:href="#path-2"></use>
                    </mask>
                    <g id="Clip-2"></g>
                    <path d="M29.3756438,21.6868624 L24.2952979,21.6868624 L24.2952979,16.6684648 C24.2952979,15.9659083 23.7187432,15.3962936 23.0076267,15.3962936 L16.9270822,15.3962936 C16.2159658,15.3962936 15.639411,15.9659083 15.639411,16.6684648 L15.639411,21.6868624 L10.5597089,21.6868624 C9.84875342,21.6868624 9.27203767,22.2564771 9.27203767,22.9590336 L9.27203767,28.9665443 C9.27203767,29.6691009 9.84875342,30.2387156 10.5597089,30.2387156 L15.639411,30.2387156 L15.639411,35.2577492 C15.639411,35.9603058 16.2159658,36.5299205 16.9270822,36.5299205 L23.0076267,36.5299205 C23.7187432,36.5299205 24.2952979,35.9603058 24.2952979,35.2577492 L24.2952979,30.2387156 L29.3756438,30.2387156 C30.0867603,30.2387156 30.6633151,29.6691009 30.6633151,28.9665443 L30.6633151,22.9590336 C30.6633151,22.2564771 30.0867603,21.6868624 29.3756438,21.6868624 L29.3756438,21.6868624 Z M28.0879726,27.6943731 L23.0076267,27.6943731 C22.2965103,27.6943731 21.7199555,28.2639878 21.7199555,28.9665443 L21.7199555,33.985578 L18.2147534,33.985578 L18.2147534,28.9665443 C18.2147534,28.2639878 17.6381986,27.6943731 16.9270822,27.6943731 L11.8473801,27.6943731 L11.8473801,24.2312049 L16.9270822,24.2312049 C17.6381986,24.2312049 18.2147534,23.6615902 18.2147534,22.9590336 L18.2147534,17.9406361 L21.7199555,17.9406361 L21.7199555,22.9590336 C21.7199555,23.6615902 22.2965103,24.2312049 23.0076267,24.2312049 L28.0879726,24.2312049 L28.0879726,27.6943731 Z M46.9106678,17.9586055 C46.9113116,17.9504954 46.9113116,17.9419083 46.9113116,17.9337982 C46.9113116,17.9256881 46.9113116,17.9169419 46.9106678,17.9089908 L46.9106678,1.35708869 C46.9106678,0.65453211 46.334113,0.0849174312 45.6229966,0.0849174312 C44.912524,0.0849174312 44.3353253,0.65453211 44.3353253,1.35708869 L44.3353253,16.6616269 L39.9353527,16.6616269 L39.9353527,10.979633 C39.9353527,8.36388991 37.7814007,6.23570642 35.1329829,6.23570642 L4.80236986,6.23570642 C2.15411301,6.23570642 0,8.36388991 0,10.979633 L0,40.945945 C0,43.5616881 2.15411301,45.6905076 4.80236986,45.6905076 L35.1329829,45.6905076 C37.7814007,45.6905076 39.9353527,43.5616881 39.9353527,40.945945 L39.9353527,35.2639511 L44.3353253,35.2639511 L44.3353253,50.5684893 C44.3353253,51.271682 44.912524,51.8406606 45.6229966,51.8406606 C46.334113,51.8406606 46.9106678,51.271682 46.9106678,50.5684893 L46.9106678,34.0167462 C46.9113116,34.0086361 46.9113116,33.9998899 46.9113116,33.9917798 C46.9113116,33.9836697 46.9113116,33.9750826 46.9106678,33.9669725 L46.9106678,17.9586055 Z M35.5775472,39.4104205 C35.5775472,40.4992619 34.6808658,41.3851498 33.578758,41.3851498 L6.35659475,41.3851498 C5.25448698,41.3851498 4.3578055,40.4992619 4.3578055,39.4104205 L4.3578055,12.5152227 C4.3578055,11.4263812 5.25448698,10.5410642 6.35659475,10.5410642 L33.578758,10.5410642 C34.6808658,10.5410642 35.5775472,11.4263812 35.5775472,12.5152227 L35.5775472,39.4104205 Z M39.9353527,19.2059694 L44.3353253,19.2059694 L44.3353253,32.7196086 L39.9353527,32.7196086 L39.9353527,19.2059694 Z" id="Fill-1" fill="#DBDBDB" mask="url(#mask-3)"></path>
                </g>
            </g>
        </g>
    </g>
</svg>