<?xml version="1.0" encoding="UTF-8" standalone="no"?>
<svg width="30px" height="30px" viewBox="0 0 30 30" version="1.1" xmlns="http://www.w3.org/2000/svg" xmlns:xlink="http://www.w3.org/1999/xlink">
    <!-- Generator: Sketch 3.6.1 (26313) - http://www.bohemiancoding.com/sketch -->
    <title>sleep</title>
    <desc>Created with Sketch.</desc>
    <defs></defs>
    <g id="09.-Profile" stroke="none" stroke-width="1" fill="none" fill-rule="evenodd">
        <g id="16_1_icare" transform="translate(-38.000000, -605.000000)" fill="#FEFEFE">
            <g id="sleep" transform="translate(38.000000, 604.000000)">
                <g id="Group-3" transform="translate(0.000000, 0.610251)">
                    <path d="M29.1741429,20.2669088 C28.8955714,19.9983713 28.4755714,19.9344338 28.1327143,20.1177213 C23.0027143,22.7945713 16.5141429,21.9889588 12.2027143,17.7008838 C7.89128571,13.4128088 7.08128571,6.95938375 9.77271429,1.85717125 C9.95271429,1.51617125 9.89271429,1.09844625 9.62271429,0.82138375 C9.34842857,0.54432125 8.92842857,0.47185875 8.58128571,0.64662125 C7.12414286,1.36698375 5.75271429,2.33030875 4.53557143,3.54085875 C-1.51157143,9.55524625 -1.51157143,19.3121088 4.53557143,25.3264963 C10.5827143,31.3408837 20.3927143,31.3408837 26.4398571,25.3264963 C27.657,24.1159463 28.6255714,22.7519463 29.3498571,21.2984338 C29.5212857,20.9531713 29.4527143,20.5354463 29.1741429,20.2669088" id="Fill-1"></path>
                </g>
                <path d="M18.465,17.5272605 C18.4435714,17.5784105 18.4607143,17.642348 18.5035714,17.676448 C18.5507143,17.710548 18.6107143,17.710548 18.6578571,17.6807105 L20.655,16.269823 L22.9221429,17.1947855 C22.9735714,17.216098 23.0335714,17.199048 23.0721429,17.156423 C23.1064286,17.1095355 23.1064286,17.045598 23.0721429,17.002973 L21.6578571,15.016648 L22.5835714,12.7617855 C22.605,12.7106355 22.5921429,12.6509605 22.545,12.612598 C22.5021429,12.578498 22.4378571,12.578498 22.3907143,12.6083355 L20.3935714,14.019223 L18.1307143,13.0942605 C18.075,13.072948 18.015,13.089998 17.9807143,13.1368855 C17.9421429,13.1795105 17.9421429,13.243448 17.9764286,13.286073 L19.395,15.272398 L18.465,17.5272605 Z" id="Fill-4"></path>
                <path d="M13.2201429,6.8454355 L14.8658571,6.9647855 L15.6458571,8.4140355 C15.6715714,8.4651855 15.7272857,8.4907605 15.783,8.477973 C15.8387143,8.469448 15.8815714,8.4225605 15.8858571,8.3628855 L16.0058571,6.7260855 L17.463,5.9503105 C17.5144286,5.9247355 17.5401429,5.869323 17.5315714,5.8139105 C17.5187143,5.758498 17.4715714,5.715873 17.4115714,5.7116105 L15.7658571,5.5922605 L14.9901429,4.1430105 C14.9601429,4.0918605 14.9044286,4.0662855 14.8487143,4.079073 C14.793,4.0918605 14.7544286,4.138748 14.7458571,4.1941605 L14.6258571,5.8309605 L13.1687143,6.6067355 C13.1172857,6.6323105 13.0915714,6.687723 13.1044286,6.7431355 C13.1172857,6.798548 13.1644286,6.841173 13.2201429,6.8454355" id="Fill-6"></path>
                <path d="M23.6481429,5.207783 L23.5967143,6.119958 C23.5967143,6.1753705 23.631,6.2265205 23.6824286,6.2435705 C23.7381429,6.264883 23.7981429,6.2435705 23.8281429,6.196683 L24.3595714,5.455008 L25.2767143,5.506158 C25.3367143,5.5104205 25.3881429,5.4763205 25.4052857,5.420908 C25.4267143,5.369758 25.4052857,5.310083 25.3581429,5.275983 L24.6124286,4.747433 L24.6638571,3.835258 C24.6638571,3.7798455 24.6295714,3.7286955 24.5781429,3.707383 C24.5224286,3.690333 24.4624286,3.707383 24.4281429,3.7542705 L23.8967143,4.4959455 L22.9838571,4.449058 C22.9238571,4.4447955 22.8724286,4.4788955 22.8552857,4.534308 C22.8381429,4.585458 22.8552857,4.645133 22.9024286,4.679233 L23.6481429,5.207783 Z" id="Fill-8"></path>
            </g>
        </g>
    </g>
</svg>