<?xml version="1.0" encoding="UTF-8" standalone="no"?>
<svg width="18px" height="18px" viewBox="0 0 18 18" version="1.1" xmlns="http://www.w3.org/2000/svg" xmlns:xlink="http://www.w3.org/1999/xlink">
    <!-- Generator: Sketch 3.6.1 (26313) - http://www.bohemiancoding.com/sketch -->
    <title>5_frequency_small</title>
    <desc>Created with Sketch.</desc>
    <defs></defs>
    <g id="11.-New-Reminder" stroke="none" stroke-width="1" fill="none" fill-rule="evenodd">
        <g id="21_1_new-reminder" transform="translate(-319.000000, -197.000000)" fill="#DADADA">
            <g id="Group" transform="translate(13.000000, 183.000000)">
                <g id="5_frequency_small" transform="translate(307.000000, 15.000000)">
                    <path d="M9.73426381,14.8953516 C9.60078753,14.9290464 9.46465652,14.9589144 9.32948295,14.9840316 C8.97605586,15.0503217 8.74248325,15.3938248 8.80793754,15.7512283 C8.84005541,15.9271807 8.9389767,16.0735732 9.07310578,16.1692913 C9.21132576,16.2675607 9.3872777,16.3119007 9.56662422,16.2782059 C9.72764875,16.248162 9.88980481,16.2125756 10.0489145,16.1723705 C10.397946,16.0845702 10.6104549,15.7273427 10.5234146,15.37491 C10.4365484,15.0221693 10.0834259,14.8075513 9.73426381,14.8953516" id="Fill-1"></path>
                    <path d="M14.549202,6.07419534 C14.5947241,6.21319777 14.6819384,6.32659913 14.7919574,6.40494196 C14.9549838,6.52111456 15.1683196,6.56013202 15.3719939,6.49208241 C15.7133659,6.37744939 15.898457,6.00544192 15.7854352,5.66044315 C15.7339074,5.50318564 15.6768089,5.34544427 15.6160983,5.19201373 C15.4824915,4.85453693 15.1037357,4.69010937 14.7696751,4.82515287 C14.4359626,4.96006442 14.2734584,5.34306891 14.4070652,5.68054572 C14.4580708,5.8097388 14.5059865,5.942231 14.549202,6.07419534" id="Fill-3"></path>
                    <path d="M11.8500827,13.9558094 C11.735146,14.0324367 11.6166841,14.1064687 11.4971778,14.1760579 C11.1855736,14.3576848 11.0789492,14.760308 11.2586439,15.075087 C11.30743,15.1606439 11.372362,15.230585 11.4471732,15.2842065 C11.6479751,15.4269919 11.9208029,15.4482821 12.1479345,15.3161418 C12.2898972,15.2333562 12.4311636,15.14538 12.5678169,15.0539287 C12.8677142,14.8536068 12.9503154,14.4453092 12.7521247,14.1420551 C12.5538904,13.8386251 12.1501541,13.7552676 11.8500827,13.9558094" id="Fill-5"></path>
                    <g id="Group-9" transform="translate(14.883889, 7.278361)">
                        <path d="M1.30632676,0.634053456 C1.29218271,0.27079962 0.989587152,-0.0120439453 0.63006724,0.00225219138 C0.27102605,0.0165043399 -0.00880847719,0.322529641 0.00511796896,0.685607525 C0.010557987,0.824434009 0.012081192,0.965327934 0.00886070136,1.10397847 C0.00376884449,1.33183689 0.11391833,1.53493001 0.285300658,1.65695303 C0.387268355,1.7296214 0.511213726,1.77360951 0.645516891,1.77668868 C1.00490624,1.78460654 1.30258403,1.49661636 1.31054822,1.13323056 C1.31411687,0.967395376 1.31276774,0.799536737 1.30632676,0.634053456" id="Fill-7"></path>
                    </g>
                    <path d="M14.4429258,12.2244373 C14.1547789,12.0058604 13.7471258,12.0653323 13.5312223,12.3560498 C13.4486211,12.4674277 13.3615808,12.5773979 13.2724951,12.6832333 C13.0395752,12.9598746 13.0725635,13.3753423 13.3460876,13.6109426 C13.3617114,13.624315 13.3775527,13.6365437 13.3938727,13.6480246 C13.6660477,13.8420562 14.0439331,13.7973643 14.2639275,13.5365148 C14.3703342,13.4102249 14.4742168,13.2787884 14.572964,13.1458123 C14.7886934,12.8550509 14.7304199,12.4426624 14.4429258,12.2244373" id="Fill-10"></path>
                    <path d="M15.4000208,9.84547221 C15.0569951,9.73673359 14.6916434,9.92984141 14.5840181,10.2765997 C14.5428916,10.4090919 14.497326,10.5422439 14.4480177,10.6726687 C14.3399136,10.9596031 14.4434481,11.2754378 14.6809375,11.444704 C14.7244576,11.4756277 14.7725474,11.5017566 14.8245975,11.5216832 C15.160486,11.6512282 15.5367176,11.4809502 15.6647103,11.14123 C15.7232014,10.9862599 15.7774275,10.8278147 15.8265618,10.6702493 C15.934013,10.323491 15.7430901,9.95425481 15.4000208,9.84547221" id="Fill-12"></path>
                    <g id="Group-16" transform="translate(0.000000, 0.020323)" stroke="#DADADA">
                        <path d="M5.22344438,14.4332564 C5.08030663,14.3636672 4.95570846,14.3001044 4.8350271,14.2337703 C4.6116382,14.1093719 4.3953866,13.9729208 4.18527134,13.8234492 C1.12254119,11.6426066 0.386093312,7.34980662 2.54373502,4.25414318 C3.0129257,3.58125702 3.58073302,3.01970477 4.21364648,2.57485298 C6.46768531,1.00487325 9.49642622,0.900225527 11.8648795,2.49651015 L11.3562161,3.23946938 C11.2147756,3.44621351 11.3016853,3.5968728 11.5493585,3.57439487 L13.7590068,3.37438092 C14.0068975,3.35185901 14.1551271,3.13517357 14.0884978,2.89323894 L13.4950136,0.7323229 C13.4286889,0.490036375 13.2585251,0.46100422 13.1169105,0.667704363 L12.6071156,1.41242311 C10.8690081,0.233189784 8.7843061,-0.216676646 6.71505381,0.146049332 C6.50663584,0.18247149 6.30109019,0.227163412 6.0984604,0.279069386 C4.28658624,0.749698205 2.7299142,1.80145398 1.61893196,3.30237238 C1.55417398,3.38709349 1.51744298,3.4384716 1.48158238,3.48984972 C1.42291723,3.57421892 1.3649484,3.66065556 1.30972133,3.74704822 C0.374691034,5.21449166 -0.0674736316,6.87433911 0.00833845963,8.56427443 C0.0156498439,8.74625325 0.0285753267,8.91362802 0.0462445053,9.07840749 C0.069397222,9.27529829 0.092332338,9.44148538 0.120881553,9.60745253 C0.411422035,11.3013468 1.20192194,12.8257988 2.38667082,14.0119383 C2.71629239,14.3404855 3.06258218,14.6341061 3.43524518,14.8994424 C4.41087977,15.5943227 5.49714257,16.0534266 6.66370004,16.2651414 C7.01782345,16.329364 7.35593145,16.0912124 7.4193403,15.733633 C7.48292323,15.3757457 7.24747925,15.0336062 6.89352992,14.9696915 C6.31144799,14.864032 5.7529975,14.6841206 5.22344438,14.4332564 Z" id="Fill-14"></path>
                    </g>
                    <path d="M7.69865259,2.91237377 C7.4074593,2.91237377 7.17166716,3.15105327 7.17166716,3.44484988 L7.17166716,8.74972831 L11.9718085,11.2577546 C12.0489697,11.2983116 12.1317886,11.3173585 12.2130407,11.3173585 C12.4037895,11.3173585 12.5878797,11.2123588 12.6815785,11.0291923 C12.8150113,10.7680349 12.7140446,10.4468777 12.4554479,10.3120101 L8.22498521,8.10143151 L8.22498521,3.44484988 C8.22498521,3.15105327 7.98954123,2.91237377 7.69865259,2.91237377" id="Fill-17"></path>
                </g>
            </g>
        </g>
    </g>
</svg>