<?xml version="1.0" encoding="UTF-8" standalone="no"?>
<svg
   xmlns:dc="http://purl.org/dc/elements/1.1/"
   xmlns:cc="http://creativecommons.org/ns#"
   xmlns:rdf="http://www.w3.org/1999/02/22-rdf-syntax-ns#"
   xmlns:svg="http://www.w3.org/2000/svg"
   xmlns="http://www.w3.org/2000/svg"
   viewBox="0 0 138.66667 138.66667"
   height="138.66667"
   width="138.66667"
   xml:space="preserve"
   id="svg2"
   version="1.1"><metadata
     id="metadata8"><rdf:RDF><cc:Work
         rdf:about=""><dc:format>image/svg+xml</dc:format><dc:type
           rdf:resource="http://purl.org/dc/dcmitype/StillImage" /></cc:Work></rdf:RDF></metadata><defs
     id="defs6"><clipPath
       id="clipPath20"
       clipPathUnits="userSpaceOnUse"><path
         style="clip-rule:evenodd"
         id="path18"
         d="M 51.99834,0 C 23.32595,0 0,23.32845 0,52 0,80.67238 23.32595,104 51.99834,104 80.67155,104 104,80.67238 104,52 104,23.32845 80.67155,0 51.99834,0 Z m 0,95.9479 C 27.76634,95.9479 8.0496,76.23366 8.0496,52 8.0496,27.76717 27.76634,8.052096 51.99834,8.052096 76.23283,8.052096 95.94957,27.76717 95.94957,52 c 0,24.23366 -19.71674,43.9479 -43.95123,43.9479 z" /></clipPath><clipPath
       id="clipPath26"
       clipPathUnits="userSpaceOnUse"><path
         id="path24"
         d="M -136,-527 H 239 V 140 H -136 Z" /></clipPath><clipPath
       id="clipPath36"
       clipPathUnits="userSpaceOnUse"><path
         style="clip-rule:evenodd"
         id="path34"
         d="M 43.264,80.704 V 62.4 H 24.128 V 54.08 H 41.61082 50.752 V 62.62714 80.704 Z" /></clipPath><clipPath
       id="clipPath42"
       clipPathUnits="userSpaceOnUse"><path
         id="path40"
         d="M -136,-527 H 239 V 140 H -136 Z" /></clipPath><clipPath
       id="clipPath52"
       clipPathUnits="userSpaceOnUse"><path
         style="clip-rule:evenodd"
         id="path50"
         d="m 62.4,62.4 v 7.488 H 54.912 V 62.62714 54.08 H 62.38835 80.704 v 8.32 z" /></clipPath><clipPath
       id="clipPath58"
       clipPathUnits="userSpaceOnUse"><path
         id="path56"
         d="M -136,-527 H 239 V 140 H -136 Z" /></clipPath><clipPath
       id="clipPath68"
       clipPathUnits="userSpaceOnUse"><path
         style="clip-rule:evenodd"
         id="path66"
         d="M 41.61082,49.088 H 24.128 V 41.6 H 42.432 V 22.464 h 8.32 v 18.9879 7.6361 z" /></clipPath><clipPath
       id="clipPath74"
       clipPathUnits="userSpaceOnUse"><path
         id="path72"
         d="M -136,-527 H 239 V 140 H -136 Z" /></clipPath><clipPath
       id="clipPath84"
       clipPathUnits="userSpaceOnUse"><path
         style="clip-rule:evenodd"
         id="path82"
         d="M 80.704,49.088 H 62.38835 54.912 V 41.4519 22.464 H 62.4 V 41.6 h 18.304 z" /></clipPath><clipPath
       id="clipPath90"
       clipPathUnits="userSpaceOnUse"><path
         id="path88"
         d="M -136,-527 H 239 V 140 H -136 Z" /></clipPath><clipPath
       id="clipPath100"
       clipPathUnits="userSpaceOnUse"><path
         style="clip-rule:evenodd"
         id="path98"
         d="M 54.912,80.704 H 62.4 v -7.488 h -7.488 z" /></clipPath><clipPath
       id="clipPath106"
       clipPathUnits="userSpaceOnUse"><path
         id="path104"
         d="M -136,-527 H 239 V 140 H -136 Z" /></clipPath></defs><g
     transform="matrix(1.3333333,0,0,-1.3333333,0,138.66667)"
     id="g10"><g
       id="g14"><g
         clip-path="url(#clipPath20)"
         id="g16"><g
           clip-path="url(#clipPath26)"
           id="g22"><path
             id="path28"
             style="fill:#117925;fill-opacity:1;fill-rule:nonzero;stroke:none"
             d="M -5,109 H 109 V -5 H -5 Z" /></g></g></g><g
       id="g30"><g
         clip-path="url(#clipPath36)"
         id="g32"><g
           clip-path="url(#clipPath42)"
           id="g38"><path
             id="path44"
             style="fill:#706259;fill-opacity:1;fill-rule:nonzero;stroke:none"
             d="M 19.128,85.704 H 55.752 V 49.08 H 19.128 Z" /></g></g></g><g
       id="g46"><g
         clip-path="url(#clipPath52)"
         id="g48"><g
           clip-path="url(#clipPath58)"
           id="g54"><path
             id="path60"
             style="fill:#706259;fill-opacity:1;fill-rule:nonzero;stroke:none"
             d="M 49.912,74.888 H 85.704 V 49.08 H 49.912 Z" /></g></g></g><g
       id="g62"><g
         clip-path="url(#clipPath68)"
         id="g64"><g
           clip-path="url(#clipPath74)"
           id="g70"><path
             id="path76"
             style="fill:#706259;fill-opacity:1;fill-rule:nonzero;stroke:none"
             d="M 19.128,54.088 H 55.752 V 17.464 H 19.128 Z" /></g></g></g><g
       id="g78"><g
         clip-path="url(#clipPath84)"
         id="g80"><g
           clip-path="url(#clipPath90)"
           id="g86"><path
             id="path92"
             style="fill:#706259;fill-opacity:1;fill-rule:nonzero;stroke:none"
             d="M 49.912,54.088 H 85.704 V 17.464 H 49.912 Z" /></g></g></g><g
       id="g94"><g
         clip-path="url(#clipPath100)"
         id="g96"><g
           clip-path="url(#clipPath106)"
           id="g102"><path
             id="path108"
             style="fill:#117925;fill-opacity:1;fill-rule:nonzero;stroke:none"
             d="M 49.912,85.704 H 67.4 V 68.216 H 49.912 Z" /></g></g></g></g></svg>