<?xml version="1.0" encoding="UTF-8" standalone="no"?>
<svg width="23px" height="23px" viewBox="0 0 23 23" version="1.1" xmlns="http://www.w3.org/2000/svg" xmlns:xlink="http://www.w3.org/1999/xlink">
    <!-- Generator: Sketch 3.6.1 (26313) - http://www.bohemiancoding.com/sketch -->
    <title>avatar_icon_pharmacy</title>
    <desc>Created with Sketch.</desc>
    <defs></defs>
    <g id="06.-Pharmacy-info" stroke="none" stroke-width="1" fill="none" fill-rule="evenodd">
        <g id="8_pharmacy-popup-mail" transform="translate(-44.000000, -194.000000)">
            <g id="card_contact-copy-3" transform="translate(20.000000, 170.000000)">
                <g id="avatar_icon_pharmacy" transform="translate(24.000000, 24.000000)">
                    <path d="M14.0056424,9.34708051 L14.0056424,6.56382287 C14.0056424,6.17417738 13.6923989,5.85826291 13.3060477,5.85826291 L10.002474,5.85826291 C9.61612286,5.85826291 9.30287932,6.17417738 9.30287932,6.56382287 L9.30287932,9.34708051 L6.54306563,9.34708051 C6.1568019,9.34708051 5.84347092,9.66299498 5.84347092,10.0526405 L5.84347092,13.384471 C5.84347092,13.7741165 6.1568019,14.0900309 6.54306563,14.0900309 L9.30287932,14.0900309 L9.30287932,16.8736414 C9.30287932,17.2632868 9.61612286,17.5792013 10.002474,17.5792013 L13.3060477,17.5792013 C13.6923989,17.5792013 14.0056424,17.2632868 14.0056424,16.8736414 L14.0056424,14.0900309 L16.7658059,14.0900309 C17.1521571,14.0900309 17.4654006,13.7741165 17.4654006,13.384471 L17.4654006,10.0526405 C17.4654006,9.66299498 17.1521571,9.34708051 16.7658059,9.34708051 L14.0056424,9.34708051 Z" id="Path" fill="#FFFFFF"></path>
                    <rect id="Rectangle-115" stroke="#FFFFFF" stroke-width="2" x="0" y="0" width="23" height="23" rx="3"></rect>
                </g>
            </g>
        </g>
    </g>
</svg>