<?xml version="1.0" encoding="UTF-8" standalone="no"?>
<svg width="30px" height="30px" viewBox="0 0 30 30" version="1.1" xmlns="http://www.w3.org/2000/svg" xmlns:xlink="http://www.w3.org/1999/xlink">
    <!-- Generator: Sketch 3.6.1 (26313) - http://www.bohemiancoding.com/sketch -->
    <title>google-plus</title>
    <desc>Created with Sketch.</desc>
    <defs>
        <path id="path-1" d="M0.0446351601,0.202791977 L0.0446351601,29.1794312 L29.5507078,29.1794312 L29.5507078,0.202791977 L14.7976715,0.202791977 L0.0446351601,0.202791977 Z"></path>
    </defs>
    <g id="06.-Pharmacy-info" stroke="none" stroke-width="1" fill="none" fill-rule="evenodd">
        <g id="8_pharmacy-info" transform="translate(-118.000000, -1861.000000)">
            <g id="Group-5-Copy-3" transform="translate(13.000000, 1569.000000)">
                <g id="google-plus" transform="translate(105.000000, 292.104075)">
                    <path d="M12.7946686,17.092154 C12.6987031,17.0294198 12.6005057,16.9637677 12.4985888,16.8922799 C12.1987893,16.8040144 11.8826235,16.7558695 11.5567869,16.7529516 L11.5158713,16.7529516 C10.0198495,16.7529516 8.70906366,17.6392547 8.70906366,18.6532146 C8.70906366,19.7561695 9.83386969,20.6198591 11.2666583,20.6198591 C13.1584452,20.6198591 14.1173572,19.9786571 14.1173572,18.7188667 C14.1173572,18.599234 14.1024788,18.4737656 14.073466,18.351215 C13.9455119,17.8610128 13.4865136,17.5560954 12.7946686,17.092154 L12.7946686,17.092154 Z" id="Fill-1" fill="#D6D6D6"></path>
                    <g id="Group-5" transform="translate(0.000000, 0.000000)">
                        <mask id="mask-2" fill="white">
                            <use xlink:href="#path-1"></use>
                        </mask>
                        <g id="Clip-3"></g>
                        <path d="M11.7338397,13.2478601 L11.7368154,13.2478601 C12.0946406,13.2478601 12.3966718,13.1085318 12.6295186,12.8459235 C12.9955269,12.4359627 13.1584452,11.7633936 13.0624796,11.0507038 C12.8936099,9.77413563 11.9637108,8.71130142 10.992896,8.68577005 L10.9527244,8.68285218 C10.6097776,8.68285218 10.3047706,8.82290995 10.0719239,9.0847888 C9.70889125,9.48964329 9.55787562,10.1308453 9.65086554,10.8428056 C9.82196698,12.1164559 10.771952,13.216493 11.7226809,13.2478601 L11.7338397,13.2478601 Z" id="Fill-2" fill="#D6D6D6" mask="url(#mask-2)"></path>
                        <path d="M14.7734941,0.202791977 C6.62832128,0.202791977 0,6.70307727 0,14.6900174 C0,22.6798754 6.62832128,29.1794312 14.7734941,29.1794312 C22.9216426,29.1794312 29.5507078,22.6798754 29.5507078,14.6900174 C29.5507078,6.70307727 22.9216426,0.202791977 14.7734941,0.202791977 L14.7734941,0.202791977 Z M13.0706627,21.7454275 C12.5127232,21.9044514 11.9086607,21.9846929 11.2748414,21.9846929 C10.568862,21.9846929 9.8918954,21.9044514 9.25807613,21.7483454 C8.03507274,21.4456163 7.13121075,20.8700664 6.70717673,20.1296569 C6.52417257,19.8101501 6.43341441,19.4709477 6.43341441,19.1149675 C6.43341441,18.7531516 6.52119689,18.3825821 6.69527402,18.0178483 C7.36628926,16.6158117 9.13607336,15.6726102 11.094813,15.6726102 L11.149863,15.6726102 C10.9899203,15.3990599 10.9147845,15.1145675 10.9147845,14.8154858 C10.9147845,14.6674039 10.9348703,14.5156747 10.9757859,14.3595686 C8.92108067,14.3136122 7.38414332,12.8408172 7.38414332,10.8945978 C7.38414332,9.52101039 8.502998,8.18462585 10.1039124,7.64336093 C10.5837404,7.48068967 11.0717515,7.39825984 11.5508355,7.39825984 L15.945167,7.39825984 C16.093207,7.39825984 16.2263685,7.49236115 16.2732355,7.63168945 C16.3201024,7.77101775 16.2672841,7.9249354 16.148257,8.01101257 L15.1662835,8.70911301 C15.1052821,8.74850426 15.0353537,8.77111775 14.9624496,8.77111775 L14.6113197,8.77111775 C15.0643665,9.30435853 15.3314336,10.068111 15.3314336,10.923047 C15.3314336,11.8662485 14.8434225,12.7576579 13.9574146,13.4360627 C13.2744966,13.9605499 13.2454838,14.1057139 13.2454838,14.4018777 C13.2536669,14.5674669 13.7305192,15.102896 14.2564701,15.4676298 C15.4824492,16.31673 15.9392157,17.1490525 15.9392157,18.5423355 C15.9392157,19.992517 14.811434,21.2493896 13.0706627,21.7454275 L13.0706627,21.7454275 Z M22.991571,14.3566507 C22.991571,14.5448534 22.8375797,14.6958531 22.6486242,14.6958531 L20.1497991,14.6958531 L20.1497991,17.1432168 C20.1497991,17.3314194 19.9958078,17.4824192 19.8068523,17.4824192 L19.0949215,17.4824192 C18.9029903,17.4824192 18.748999,17.3314194 18.748999,17.1432168 L18.748999,14.6958531 L16.2531496,14.6958531 C16.0641941,14.6958531 15.9072271,14.5448534 15.9072271,14.3566507 L15.9072271,13.6614682 C15.9072271,13.4732655 16.0641941,13.3193479 16.2531496,13.3193479 L18.748999,13.3193479 L18.748999,10.8741727 C18.748999,10.6859701 18.9029903,10.5349703 19.0949215,10.5349703 L19.8068523,10.5349703 C19.9958078,10.5349703 20.1497991,10.6859701 20.1497991,10.8741727 L20.1497991,13.3193479 L22.6486242,13.3193479 C22.8375797,13.3193479 22.991571,13.4732655 22.991571,13.6585503 L22.991571,14.3566507 Z" id="Fill-4" fill="#D7D7D7" mask="url(#mask-2)"></path>
                    </g>
                </g>
            </g>
        </g>
    </g>
</svg>