<?xml version="1.0" encoding="UTF-8" standalone="no"?>
<svg width="30px" height="30px" viewBox="0 0 30 30" version="1.1" xmlns="http://www.w3.org/2000/svg" xmlns:xlink="http://www.w3.org/1999/xlink">
    <!-- Generator: Sketch 3.6.1 (26313) - http://www.bohemiancoding.com/sketch -->
    <title>facebook2</title>
    <desc>Created with Sketch.</desc>
    <defs>
        <path id="path-1" d="M14.7976715,0.202791977 L0.0446351601,0.202791977 L0.0446351601,29.1794312 L29.5507078,29.1794312 L29.5507078,0.202791977 L14.7976715,0.202791977 L14.7976715,0.202791977 Z"></path>
    </defs>
    <g id="06.-Pharmacy-info" stroke="none" stroke-width="1" fill="none" fill-rule="evenodd">
        <g id="8_pharmacy-info" transform="translate(-38.000000, -1861.000000)">
            <g id="Group-5-Copy-3" transform="translate(13.000000, 1569.000000)">
                <g id="facebook2" transform="translate(25.000000, 292.000000)">
                    <mask id="mask-2" fill="white">
                        <use xlink:href="#path-1"></use>
                    </mask>
                    <g id="Clip-2"></g>
                    <path d="M14.7734941,0.202791977 C6.62832128,0.202791977 0,6.70307727 0,14.6900174 C0,22.6798754 6.62832128,29.1794312 14.7734941,29.1794312 C22.9216426,29.1794312 29.5507078,22.6798754 29.5507078,14.6900174 C29.5507078,6.70307727 22.9216426,0.202791977 14.7734941,0.202791977 L14.7734941,0.202791977 Z M18.4499434,15.1999152 L16.0463401,15.1999152 L16.0463401,23.6033813 L12.4837104,23.6033813 L12.4837104,15.1999152 L10.789806,15.1999152 L10.789806,12.2309823 L12.4837104,12.2309823 L12.4837104,10.3102943 C12.4837104,8.93670689 13.1495182,6.7855071 16.0783286,6.7855071 L18.7170105,6.79644911 L18.7170105,9.67784591 L16.8021621,9.67784591 C16.4882281,9.67784591 16.0463401,9.83176356 16.0463401,10.4868254 L16.0463401,12.2339002 L18.7609017,12.2339002 L18.4499434,15.1999152 Z" id="Fill-1" fill="#D7D7D7" mask="url(#mask-2)"></path>
                </g>
            </g>
        </g>
    </g>
</svg>