<?xml version="1.0" encoding="UTF-8" standalone="no"?>
<svg width="30px" height="30px" viewBox="0 0 30 30" version="1.1" xmlns="http://www.w3.org/2000/svg" xmlns:xlink="http://www.w3.org/1999/xlink">
    <!-- Generator: Sketch 3.6.1 (26313) - http://www.bohemiancoding.com/sketch -->
    <title>twitter</title>
    <desc>Created with Sketch.</desc>
    <defs>
        <path id="path-1" d="M14.7976715,0.202791977 L0.0446351601,0.202791977 L0.0446351601,29.1794312 L29.5507078,29.1794312 L29.5507078,0.202791977 L14.7976715,0.202791977 L14.7976715,0.202791977 Z"></path>
    </defs>
    <g id="06.-Pharmacy-info" stroke="none" stroke-width="1" fill="none" fill-rule="evenodd">
        <g id="8_pharmacy-info" transform="translate(-78.000000, -1861.000000)">
            <g id="Group-5-Copy-3" transform="translate(13.000000, 1569.000000)">
                <g id="twitter" transform="translate(65.000000, 292.000000)">
                    <mask id="mask-2" fill="white">
                        <use xlink:href="#path-1"></use>
                    </mask>
                    <g id="Clip-2"></g>
                    <path d="M14.7734941,0.202791977 C6.62832128,0.202791977 0,6.70307727 0,14.6900174 C0,22.6798754 6.62832128,29.1794312 14.7734941,29.1794312 C22.9216426,29.1794312 29.5507078,22.6798754 29.5507078,14.6900174 C29.5507078,6.70307727 22.9216426,0.202791977 14.7734941,0.202791977 L14.7734941,0.202791977 Z M21.3675951,11.3760464 C21.3728025,11.5182925 21.3757782,11.6634566 21.3757782,11.8093501 C21.3757782,16.2146046 17.955981,21.2946166 11.6996194,21.2946166 C9.77881966,21.2946166 7.9911815,20.7453275 6.48623268,19.7962902 C6.75329973,19.8276573 7.02334244,19.8444351 7.29710476,19.8444351 C8.89206781,19.8444351 10.356845,19.3119238 11.5218227,18.4168671 C10.033984,18.3884179 8.77899208,17.4255207 8.34603102,16.1000782 C8.55209668,16.1401989 8.76411369,16.1598945 8.98505773,16.1598945 C9.29304034,16.1598945 9.59507159,16.1205033 9.87999269,16.0431797 C8.32520128,15.7382623 7.15129657,14.3909357 7.15129657,12.7751651 C7.15129657,12.7605758 7.15129657,12.7467159 7.15427225,12.7321265 C7.6102948,12.9830634 8.13698969,13.1311453 8.69492919,13.147923 C7.78214017,12.5526775 7.18030942,11.529964 7.18030942,10.3730285 C7.18030942,9.76319361 7.34917911,9.19056159 7.64005157,8.69744153 C9.31610184,10.7151488 11.8245978,12.0427797 14.6485156,12.182108 C14.5904899,11.9370069 14.5614771,11.6838817 14.5614771,11.4212733 C14.5614771,9.58082673 16.0842799,8.08760666 17.9619324,8.08760666 C18.9409302,8.08760666 19.8239624,8.49246115 20.4429033,9.1387694 C21.2188112,8.99068748 21.9485961,8.71421929 22.6054768,8.32978989 C22.3495686,9.11032016 21.8117149,9.76319361 21.1087111,10.1760722 C21.7975804,10.0965603 22.4544612,9.91711127 23.0614994,9.65231455 C22.6084525,10.3190479 22.0296833,10.9055398 21.3675951,11.3760464 L21.3675951,11.3760464 Z" id="Fill-1" fill="#D7D7D7" mask="url(#mask-2)"></path>
                </g>
            </g>
        </g>
    </g>
</svg>